<?xml version="1.0" encoding="UTF-8"?>
<!DOCTYPE svg PUBLIC "-//W3C//DTD SVG 1.1//EN" "http://www.w3.org/Graphics/SVG/1.1/DTD/svg11.dtd">
<svg xmlns="http://www.w3.org/2000/svg" version="1.1" width="1096px" height="512px" style="shape-rendering:geometricPrecision; text-rendering:geometricPrecision; image-rendering:optimizeQuality; fill-rule:evenodd; clip-rule:evenodd" xmlns:xlink="http://www.w3.org/1999/xlink">
<g><path style="opacity:0.986" fill="#008feb" d="M 247.5,6.5 C 259.856,6.4068 272.19,6.9068 284.5,8C 288.701,8.07396 292.701,8.9073 296.5,10.5C 296.1,40.8604 300.6,70.5271 310,99.5C 318.16,118.984 330.16,135.651 346,149.5C 355.026,161.217 361.692,174.217 366,188.5C 373.009,204.355 382.842,218.188 395.5,230C 409.323,239.686 421.823,238.186 433,225.5C 435.455,221.469 437.121,217.136 438,212.5C 438.667,211.167 439.333,211.167 440,212.5C 442.935,219.638 445.268,226.971 447,234.5C 450.506,257.733 453.173,281.066 455,304.5C 456.6,319.867 463.1,332.7 474.5,343C 480.536,347.01 487.203,348.843 494.5,348.5C 485.685,373.143 473.018,395.476 456.5,415.5C 428.756,399.306 399.089,388.14 367.5,382C 348.708,379.946 330.374,381.946 312.5,388C 295.405,390.119 278.405,389.453 261.5,386C 245.093,384.84 229.093,386.84 213.5,392C 201.361,398.113 196.527,407.947 199,421.5C 201.22,428.101 205.053,433.601 210.5,438C 199.551,437.265 188.884,434.931 178.5,431C 155.399,420.449 132.065,410.449 108.5,401C 95.7591,397.848 83.7591,399.514 72.5,406C 68.5776,409.415 65.2443,413.249 62.5,417.5C 45.9604,397.779 32.9604,375.779 23.5,351.5C 47.177,337.393 69.0104,320.727 89,301.5C 105.148,283.872 115.481,263.205 120,239.5C 123,233.5 126,227.5 129,221.5C 136.333,211.5 143.667,201.5 151,191.5C 156.434,181.966 160.767,171.966 164,161.5C 169.281,140.462 161.281,128.129 140,124.5C 136.064,125.128 132.23,126.128 128.5,127.5C 128.167,127.167 127.833,126.833 127.5,126.5C 133.606,117.559 140.939,109.726 149.5,103C 164.222,91.945 179.222,81.2784 194.5,71C 209.672,61.8269 219.505,48.6603 224,31.5C 225.138,23.7174 223.304,16.7174 218.5,10.5C 228.221,8.57162 237.887,7.23829 247.5,6.5 Z M 187.5,250.5 C 195.41,250.81 202.743,252.976 209.5,257C 216.423,263.118 216.09,268.785 208.5,274C 206.649,274.837 204.816,275.671 203,276.5C 196.791,269.567 189.291,267.733 180.5,271C 175.236,276.169 172.903,282.503 173.5,290C 173.149,305.662 180.482,311.662 195.5,308C 198.503,306.834 201.17,305.167 203.5,303C 210.739,303.862 215.073,308.029 216.5,315.5C 211.113,321.868 204.113,325.702 195.5,327C 167.171,330.659 152.171,318.326 150.5,290C 151.449,265.891 163.782,252.724 187.5,250.5 Z M 262.5,250.5 C 288.24,253.761 299.74,268.428 297,294.5C 294.931,295.264 292.764,295.764 290.5,296C 276.504,296.5 262.504,296.667 248.5,296.5C 251.407,309.464 259.407,313.964 272.5,310C 274.949,309.275 277.283,308.275 279.5,307C 285.656,307.82 289.322,311.487 290.5,318C 286.259,321.955 281.259,324.622 275.5,326C 238,331.167 221.833,315 227,277.5C 232.574,260.143 244.407,251.143 262.5,250.5 Z M 338.5,250.5 C 346.794,251.24 354.794,253.24 362.5,256.5C 364.238,264.12 362.071,270.453 356,275.5C 349.436,269.99 341.936,268.156 333.5,270C 332.018,272.592 332.352,274.925 334.5,277C 343.072,279.746 351.406,283.079 359.5,287C 368.396,295.228 369.896,304.728 364,315.5C 353.972,325.717 341.805,329.551 327.5,327C 319.487,325.744 312.654,322.244 307,316.5C 306.333,315.5 306.333,314.5 307,313.5C 310.255,307.448 315.088,303.115 321.5,300.5C 326.852,308.673 334.185,311.173 343.5,308C 346.044,305.778 346.044,303.611 343.5,301.5C 334.098,298.535 325.098,294.702 316.5,290C 308.737,281.73 307.57,272.563 313,262.5C 319.748,254.752 328.248,250.752 338.5,250.5 Z"/></g>
<g><path style="opacity:0.983" fill="#6ebd43" d="M 202.5,12.5 C 212.541,17.0865 215.708,24.7532 212,35.5C 208.353,44.1399 202.853,51.3066 195.5,57C 175.273,70.56 155.606,84.8933 136.5,100C 115.874,119.406 102.041,142.906 95,170.5C 94.3333,173.167 94.3333,175.833 95,178.5C 103.05,168.785 110.716,158.785 118,148.5C 125.865,137.971 136.031,134.471 148.5,138C 153.022,140.878 155.022,145.045 154.5,150.5C 152.63,162.942 148.463,174.609 142,185.5C 136.487,193.858 130.487,201.858 124,209.5C 113.725,224.725 106.725,241.391 103,259.5C 94.306,278.864 81.806,295.364 65.5,309C 52.6784,318.91 39.6784,328.577 26.5,338C 24.3046,339.373 21.9712,339.706 19.5,339C -5.14852,260.542 4.68481,186.708 49,117.5C 87.0942,63.5253 138.261,28.5253 202.5,12.5 Z"/></g>
<g><path style="opacity:0.983" fill="#6ebd43" d="M 307.5,12.5 C 382.163,27.3536 438.997,67.3536 478,132.5C 513.619,196.979 520.786,264.479 499.5,335C 489.647,339.328 481.48,337.161 475,328.5C 469.624,321.038 466.624,312.705 466,303.5C 464.24,284.142 462.24,264.808 460,245.5C 454.812,209.439 438.479,179.772 411,156.5C 414.489,168.835 419.156,180.835 425,192.5C 428.647,201.692 428.314,210.692 424,219.5C 418.395,225.776 411.895,226.943 404.5,223C 396.606,216.105 389.773,208.272 384,199.5C 377.196,186.89 371.196,173.89 366,160.5C 363,155.833 360,151.167 357,146.5C 349.723,138.552 342.39,130.552 335,122.5C 322.841,105.036 315.174,85.7023 312,64.5C 308.908,47.1989 307.408,29.8656 307.5,12.5 Z"/></g>
<g><path style="opacity:0.87" fill="#008feb" d="M 977.5,107.5 C 982.459,108.826 986.126,111.826 988.5,116.5C 985.813,120.021 982.647,123.021 979,125.5C 974.696,123.696 971.529,120.696 969.5,116.5C 971.504,112.834 974.171,109.834 977.5,107.5 Z"/></g>
<g><path style="opacity:0.935" fill="#008feb" d="M 1009.5,117.5 C 1011.56,117.687 1013.56,118.187 1015.5,119C 1014.53,124.072 1014.2,129.238 1014.5,134.5C 1019.21,134.647 1023.88,134.314 1028.5,133.5C 1029.59,144.731 1024.59,148.731 1013.5,145.5C 1013.27,151.668 1012.93,157.835 1012.5,164C 1011.2,178.072 1016.03,180.906 1027,172.5C 1032.99,175.766 1033.82,179.933 1029.5,185C 1021.32,190.313 1012.99,190.646 1004.5,186C 1003.54,184.581 1002.71,183.081 1002,181.5C 1000.56,169.576 1000.06,157.576 1000.5,145.5C 991.431,146.514 989.431,143.347 994.5,136C 996.81,135.503 999.143,135.337 1001.5,135.5C 1001.33,130.821 1001.5,126.155 1002,121.5C 1004.26,119.501 1006.76,118.168 1009.5,117.5 Z"/></g>
<g><path style="opacity:0.924" fill="#008feb" d="M 589.5,132.5 C 599.231,130.782 607.731,133.115 615,139.5C 616.4,144.784 614.4,148.118 609,149.5C 600.633,140.902 593.3,141.569 587,151.5C 585.065,157.843 585.065,164.177 587,170.5C 590.04,176.603 594.874,178.769 601.5,177C 604.505,175.497 607.505,173.997 610.5,172.5C 615.552,174.181 617.552,177.514 616.5,182.5C 603.632,191.795 590.799,191.795 578,182.5C 575.566,179.205 573.899,175.538 573,171.5C 571.874,162.658 572.541,153.992 575,145.5C 578.162,139.164 582.996,134.831 589.5,132.5 Z"/></g>
<g><path style="opacity:0.926" fill="#008feb" d="M 639.5,132.5 C 660.453,130.121 671.12,139.455 671.5,160.5C 670.728,182.775 659.395,191.942 637.5,188C 625.887,182.621 620.554,173.454 621.5,160.5C 621.049,146.678 627.049,137.345 639.5,132.5 Z M 643.5,143.5 C 650.496,142.906 654.996,145.906 657,152.5C 658.729,159.68 658.062,166.68 655,173.5C 650.8,177.714 645.966,178.548 640.5,176C 638.106,174.048 636.606,171.548 636,168.5C 635.333,163.167 635.333,157.833 636,152.5C 637.113,148.234 639.613,145.234 643.5,143.5 Z"/></g>
<g><path style="opacity:0.929" fill="#008feb" d="M 689.5,132.5 C 691.167,132.5 692.833,132.5 694.5,132.5C 694.337,134.857 694.503,137.19 695,139.5C 697.91,134.602 702.244,132.269 708,132.5C 714.603,131.809 719.269,134.476 722,140.5C 727.653,132.933 735.153,130.433 744.5,133C 749.703,135.553 752.87,139.72 754,145.5C 755.699,159.475 755.866,173.475 754.5,187.5C 750.635,188.806 746.802,188.806 743,187.5C 742.874,174.792 742.207,162.126 741,149.5C 737.75,142.442 733.417,141.775 728,147.5C 727.138,149.087 726.471,150.754 726,152.5C 724.934,164.362 724.101,176.195 723.5,188C 719.775,188.76 716.108,188.593 712.5,187.5C 711.667,174.846 711.167,162.18 711,149.5C 709.479,144.321 706.313,142.821 701.5,145C 698.894,146.938 697.061,149.438 696,152.5C 694.92,164.126 694.086,175.792 693.5,187.5C 689.892,188.593 686.225,188.76 682.5,188C 681.676,174.242 681.176,160.408 681,146.5C 679.818,143.144 679.651,139.81 680.5,136.5C 683.708,135.391 686.708,134.058 689.5,132.5 Z"/></g>
<g><path style="opacity:0.93" fill="#008feb" d="M 776.5,132.5 C 777.833,132.5 779.167,132.5 780.5,132.5C 780.337,134.857 780.503,137.19 781,139.5C 786.775,132.511 793.942,130.678 802.5,134C 804.709,135.873 806.542,138.04 808,140.5C 813.743,132.942 821.243,130.442 830.5,133C 837.418,136.652 840.918,142.486 841,150.5C 841.833,162.847 841.666,175.18 840.5,187.5C 836.635,188.806 832.802,188.806 829,187.5C 828.667,176.167 828.333,164.833 828,153.5C 827.692,145.497 823.859,142.664 816.5,145C 812.926,149.097 811.093,153.93 811,159.5C 810.82,169.077 810.32,178.577 809.5,188C 805.775,188.76 802.108,188.593 798.5,187.5C 797.667,174.513 797.167,161.513 797,148.5C 792.866,141.957 788.532,141.957 784,148.5C 783.138,150.087 782.471,151.754 782,153.5C 780.949,164.802 780.115,176.135 779.5,187.5C 775.833,188.833 772.167,188.833 768.5,187.5C 767.667,173.512 767.167,159.512 767,145.5C 766.627,143.302 766.127,141.135 765.5,139C 765.645,138.228 765.978,137.561 766.5,137C 769.815,135.17 773.149,133.67 776.5,132.5 Z"/></g>
<g><path style="opacity:0.928" fill="#008feb" d="M 862.5,132.5 C 863.833,132.5 865.167,132.5 866.5,132.5C 866.333,145.171 866.5,157.838 867,170.5C 868.572,177.036 872.405,178.869 878.5,176C 882.381,173.072 884.881,169.239 886,164.5C 886.168,155.149 886.668,145.816 887.5,136.5C 891.184,134.161 895.184,132.828 899.5,132.5C 899.833,150.845 899.5,169.179 898.5,187.5C 895.227,188.585 891.894,188.752 888.5,188C 886.901,186.214 886.067,184.047 886,181.5C 878.301,189.706 869.468,191.206 859.5,186C 856.51,182.372 854.677,178.205 854,173.5C 853.333,161.5 853.333,149.5 854,137.5C 856.979,135.933 859.812,134.266 862.5,132.5 Z"/></g>
<g><path style="opacity:0.927" fill="#008feb" d="M 921.5,132.5 C 922.833,132.5 924.167,132.5 925.5,132.5C 925.336,135.187 925.503,137.854 926,140.5C 931.653,132.933 939.153,130.433 948.5,133C 955.123,136.392 958.623,141.892 959,149.5C 959.167,155.833 959.333,162.167 959.5,168.5C 959.478,175.24 958.812,181.74 957.5,188C 954.106,188.752 950.773,188.585 947.5,187.5C 946.667,175.848 946.167,164.181 946,152.5C 944.051,143.441 939.218,141.441 931.5,146.5C 929.501,148.493 928.001,150.827 927,153.5C 925.783,164.785 925.116,176.118 925,187.5C 921.198,188.806 917.365,188.806 913.5,187.5C 912.667,173.178 912.167,158.845 912,144.5C 911.433,141.832 910.933,139.166 910.5,136.5C 914.383,135.541 918.05,134.208 921.5,132.5 Z"/></g>
<g><path style="opacity:0.933" fill="#008feb" d="M 980.5,132.5 C 981.833,132.5 983.167,132.5 984.5,132.5C 984.667,150.836 984.5,169.17 984,187.5C 980.198,188.806 976.365,188.806 972.5,187.5C 971.667,173.178 971.167,158.845 971,144.5C 970.713,142.109 970.213,139.776 969.5,137.5C 973.175,135.619 976.841,133.952 980.5,132.5 Z"/></g>
<g><path style="opacity:0.914" fill="#008feb" d="M 1039.5,132.5 C 1042.12,132.232 1044.62,132.565 1047,133.5C 1051.39,143.952 1056.06,154.285 1061,164.5C 1065.33,154.167 1069.67,143.833 1074,133.5C 1078.95,131.818 1083.12,132.985 1086.5,137C 1075.4,161.691 1064.74,186.525 1054.5,211.5C 1048.86,212.184 1044.86,210.017 1042.5,205C 1046.64,196.56 1050.64,188.06 1054.5,179.5C 1047.5,165.5 1040.5,151.5 1033.5,137.5C 1035.52,135.81 1037.52,134.144 1039.5,132.5 Z"/></g>
<g><path style="opacity:0.93" fill="#008feb" d="M 741.5,215.5 C 742.5,215.5 743.5,215.5 744.5,215.5C 744.333,226.172 744.5,236.839 745,247.5C 752.303,240.04 760.803,238.206 770.5,242C 775.242,245.649 777.742,250.482 778,256.5C 778.5,269.496 778.667,282.496 778.5,295.5C 774.167,296.833 769.833,296.833 765.5,295.5C 765.667,283.495 765.5,271.495 765,259.5C 762.119,250.654 757.119,249.32 750,255.5C 748.092,258.215 746.759,261.215 746,264.5C 744.662,274.784 744.162,285.117 744.5,295.5C 740.167,296.833 735.833,296.833 731.5,295.5C 731.667,272.831 731.5,250.164 731,227.5C 730.689,225.444 730.189,223.444 729.5,221.5C 733.232,218.925 737.232,216.925 741.5,215.5 Z"/></g>
<g><path style="opacity:0.927" fill="#008feb" d="M 945.5,236.5 C 949.881,236.372 954.215,236.705 958.5,237.5C 958.5,240.833 958.5,244.167 958.5,247.5C 954.743,247.071 951.243,247.737 948,249.5C 953.647,265.77 948.147,275.77 931.5,279.5C 930.167,280.833 930.167,282.167 931.5,283.5C 936.593,284.262 941.593,285.428 946.5,287C 956.153,292.422 958.653,300.256 954,310.5C 946.962,316.851 938.628,319.851 929,319.5C 921.318,319.595 914.151,317.762 907.5,314C 902.278,307.964 901.111,301.131 904,293.5C 907.577,288.621 912.41,285.621 918.5,284.5C 919.769,282.305 919.769,280.139 918.5,278C 905.788,274.619 901.288,266.453 905,253.5C 909.299,243.923 916.799,239.256 927.5,239.5C 931.331,239.97 934.998,240.97 938.5,242.5C 940.878,240.448 943.211,238.448 945.5,236.5 Z M 922.5,251.5 C 930.586,249.528 935.253,252.528 936.5,260.5C 935.821,266.01 932.654,269.01 927,269.5C 919.237,268.411 916.237,264.078 918,256.5C 919.025,254.313 920.525,252.646 922.5,251.5 Z M 921.5,294.5 C 927.245,294.211 932.912,294.711 938.5,296C 942.213,297.691 943.379,300.525 942,304.5C 940.681,306.487 938.848,307.654 936.5,308C 930.747,308.851 925.08,308.517 919.5,307C 915.47,304.713 914.636,301.546 917,297.5C 918.409,296.219 919.909,295.219 921.5,294.5 Z"/></g>
<g><path style="opacity:0.921" fill="#008feb" d="M 596.5,239.5 C 611.136,239.636 619.302,246.969 621,261.5C 621.777,264.429 621.61,267.263 620.5,270C 608.875,271.194 597.208,271.861 585.5,272C 586.164,280.163 590.498,284.996 598.5,286.5C 602.821,285.671 606.988,284.337 611,282.5C 615.026,284.222 616.693,287.222 616,291.5C 605.604,297.171 594.771,298.005 583.5,294C 577.648,290.474 574.148,285.307 573,278.5C 572.333,272.167 572.333,265.833 573,259.5C 576.159,247.164 583.992,240.497 596.5,239.5 Z M 595.5,250.5 C 602.712,250.713 606.712,254.38 607.5,261.5C 600.476,261.435 593.476,261.768 586.5,262.5C 587.256,256.752 590.256,252.752 595.5,250.5 Z"/></g>
<g><path style="opacity:0.909" fill="#008feb" d="M 634.5,239.5 C 635.822,239.33 636.989,239.663 638,240.5C 642.091,246.347 646.424,252.013 651,257.5C 655.289,251.755 659.456,245.921 663.5,240C 668.088,239.555 671.588,241.388 674,245.5C 674.667,246.833 674.667,248.167 674,249.5C 668.646,255.353 663.48,261.353 658.5,267.5C 664.167,274.833 669.833,282.167 675.5,289.5C 672.966,294.563 668.966,296.73 663.5,296C 658.876,289.252 654.376,282.419 650,275.5C 644.922,281.99 640.089,288.656 635.5,295.5C 628.471,297.293 624.638,294.626 624,287.5C 629.793,280.039 635.959,272.872 642.5,266C 636.777,259.948 631.444,253.615 626.5,247C 628.396,243.602 631.062,241.102 634.5,239.5 Z"/></g>
<g><path style="opacity:0.919" fill="#008feb" d="M 702.5,239.5 C 710.126,239.539 716.626,242.206 722,247.5C 722.895,252.294 720.895,255.294 716,256.5C 711.552,252.573 706.386,251.073 700.5,252C 696.51,253.99 694.01,257.157 693,261.5C 691.919,268.054 692.586,274.388 695,280.5C 698.226,284.576 702.393,286.076 707.5,285C 710.954,283.698 714.288,282.198 717.5,280.5C 722.561,282.061 724.395,285.394 723,290.5C 714.696,296.146 705.53,297.979 695.5,296C 685.172,293.231 679.672,286.398 679,275.5C 676.524,262.252 680.357,251.419 690.5,243C 694.482,241.33 698.482,240.163 702.5,239.5 Z"/></g>
<g><path style="opacity:0.927" fill="#008feb" d="M 809.5,239.5 C 813.163,239.952 816.83,240.452 820.5,241C 826.41,242.579 829.91,246.412 831,252.5C 831.333,261.833 831.667,271.167 832,280.5C 833.411,285.129 836.577,287.129 841.5,286.5C 839.336,296.141 833.67,298.974 824.5,295C 822.513,293.681 821.346,291.848 821,289.5C 814.936,296.182 807.436,298.349 798.5,296C 790.837,293.026 787.171,287.359 787.5,279C 788.103,266.066 794.936,259.566 808,259.5C 811.131,260.206 814.298,260.873 817.5,261.5C 818.957,256.578 817.29,253.078 812.5,251C 807.351,250.701 802.351,251.534 797.5,253.5C 794.231,252.44 792.565,250.107 792.5,246.5C 792.608,245.558 792.941,244.725 793.5,244C 798.705,241.536 804.038,240.036 809.5,239.5 Z M 806.5,269.5 C 810.534,269.505 814.534,269.838 818.5,270.5C 819.713,279.102 816.213,284.436 808,286.5C 801.094,284.015 799.094,279.348 802,272.5C 803.652,271.601 805.152,270.601 806.5,269.5 Z"/></g>
<g><path style="opacity:0.927" fill="#008feb" d="M 860.5,239.5 C 861.317,241.969 861.817,244.635 862,247.5C 871.194,238.25 880.861,237.583 891,245.5C 893.34,249.521 894.674,253.854 895,258.5C 895.5,270.829 895.667,283.162 895.5,295.5C 891.167,296.833 886.833,296.833 882.5,295.5C 882.877,282.454 882.377,269.454 881,256.5C 877.486,250.931 872.986,250.098 867.5,254C 865.383,255.731 863.883,257.898 863,260.5C 861.588,272.104 861.088,283.771 861.5,295.5C 857.167,296.833 852.833,296.833 848.5,295.5C 848.667,281.496 848.5,267.496 848,253.5C 847.661,250.964 847.161,248.464 846.5,246C 847.444,244.523 848.777,243.523 850.5,243C 853.98,241.897 857.313,240.731 860.5,239.5 Z"/></g>
<g><path style="opacity:0.922" fill="#008feb" d="M 983.5,239.5 C 1002.42,241.104 1010.76,251.437 1008.5,270.5C 996.856,271.361 985.19,271.695 973.5,271.5C 973.907,279.906 978.24,284.906 986.5,286.5C 990.69,285.739 994.69,284.405 998.5,282.5C 1001.78,283.85 1003.78,286.35 1004.5,290C 1001.65,293.264 997.982,295.264 993.5,296C 971.79,299.95 960.457,290.95 959.5,269C 959.396,252.293 967.396,242.46 983.5,239.5 Z M 983.5,250.5 C 990.235,250.569 994.235,253.903 995.5,260.5C 988.512,261.374 981.512,262.041 974.5,262.5C 974.628,256.209 977.628,252.209 983.5,250.5 Z"/></g>
<g><path style="opacity:0.91" fill="#0087cf" d="M 258.5,267.5 C 269.675,266.343 275.009,271.343 274.5,282.5C 265.833,282.833 257.167,283.167 248.5,283.5C 248.339,275.794 251.672,270.46 258.5,267.5 Z"/></g>
<g><path style="opacity:0.926" fill="#008feb" d="M 728.5,333.5 C 731.167,333.5 733.833,333.5 736.5,333.5C 736.5,339.167 736.5,344.833 736.5,350.5C 741.141,349.873 745.807,349.54 750.5,349.5C 751.014,353.753 750.014,357.587 747.5,361C 743.514,361.499 739.514,361.666 735.5,361.5C 735.067,367.155 734.734,372.821 734.5,378.5C 732.094,392.954 736.928,396.288 749,388.5C 753.311,390.455 754.978,393.788 754,398.5C 746.334,404.517 737.834,406.017 728.5,403C 723.389,397.591 721.056,391.091 721.5,383.5C 722.303,376.188 722.636,368.854 722.5,361.5C 714.073,362.947 711.74,359.947 715.5,352.5C 718.027,351.786 720.527,351.12 723,350.5C 723.333,345.833 723.667,341.167 724,336.5C 725.652,335.601 727.152,334.601 728.5,333.5 Z"/></g>
<g><path style="opacity:0.917" fill="#008feb" d="M 587.5,347.5 C 594.389,347.111 600.889,348.444 607,351.5C 608.151,355.829 607.318,359.662 604.5,363C 600.54,361.457 596.373,360.291 592,359.5C 586.006,359.292 584.506,361.626 587.5,366.5C 595.352,367.843 602.185,371.176 608,376.5C 614.473,390.048 610.64,399.214 596.5,404C 589.314,405.055 582.314,404.388 575.5,402C 572.821,400.654 570.821,398.654 569.5,396C 571.291,391.708 574.291,388.542 578.5,386.5C 583.761,393.992 589.927,394.992 597,389.5C 597.687,387.08 597.187,384.913 595.5,383C 589.568,380.467 583.568,378.134 577.5,376C 575.383,374.269 573.883,372.102 573,369.5C 570.481,357.204 575.315,349.87 587.5,347.5 Z"/></g>
<g><path style="opacity:0.917" fill="#008feb" d="M 622.5,347.5 C 624.167,347.5 625.833,347.5 627.5,347.5C 631.603,358.377 636.27,369.044 641.5,379.5C 646.616,369.152 650.949,358.485 654.5,347.5C 659.572,347.41 663.905,349.077 667.5,352.5C 657.375,374.709 647.542,397.042 638,419.5C 636.822,422.533 635.156,425.199 633,427.5C 628.391,426.961 625.224,424.628 623.5,420.5C 627.213,411.86 631.213,403.36 635.5,395C 628.372,381.244 621.372,367.411 614.5,353.5C 616.517,350.506 619.184,348.506 622.5,347.5 Z"/></g>
<g><path style="opacity:0.914" fill="#008feb" d="M 686.5,347.5 C 693.513,347.169 700.179,348.503 706.5,351.5C 707.776,356.338 706.443,360.338 702.5,363.5C 697.728,359.911 692.394,358.745 686.5,360C 683.808,362.632 684.141,364.966 687.5,367C 695.528,368.264 702.361,371.764 708,377.5C 713.608,391.026 709.442,399.859 695.5,404C 686.973,405.569 678.973,404.235 671.5,400C 670.257,398.846 669.257,397.512 668.5,396C 670.304,391.696 673.304,388.529 677.5,386.5C 679.65,388.149 681.65,389.982 683.5,392C 688.398,394.487 692.565,393.654 696,389.5C 696.896,386.975 696.396,384.808 694.5,383C 689.322,380.607 683.988,378.607 678.5,377C 671.915,372.532 669.748,366.365 672,358.5C 674.804,352.029 679.637,348.362 686.5,347.5 Z"/></g>
<g><path style="opacity:0.929" fill="#008feb" d="M 779.5,347.5 C 799.184,347.852 808.018,357.852 806,377.5C 794.581,378.488 783.081,378.821 771.5,378.5C 771.285,387.61 775.619,392.61 784.5,393.5C 788.706,393.32 792.706,392.32 796.5,390.5C 799.779,391.85 801.779,394.35 802.5,398C 799.328,401.511 795.328,403.511 790.5,404C 769.268,407.431 758.268,398.431 757.5,377C 757.249,361.13 764.583,351.297 779.5,347.5 Z M 780.5,358.5 C 787.37,358.263 791.703,361.429 793.5,368C 786.755,369.148 779.922,369.981 773,370.5C 772.727,364.703 775.227,360.703 780.5,358.5 Z"/></g>
<g><path style="opacity:0.94" fill="#008feb" d="M 826.5,347.5 C 828.22,349.658 829.053,352.325 829,355.5C 834.935,347.526 842.435,345.692 851.5,350C 853.293,351.78 854.96,353.613 856.5,355.5C 863.428,347.519 871.762,345.686 881.5,350C 886.481,353.932 888.981,359.099 889,365.5C 889.5,378.162 889.667,390.829 889.5,403.5C 885.167,403.5 880.833,403.5 876.5,403.5C 876.667,391.829 876.5,380.162 876,368.5C 874.128,358.75 869.461,357.083 862,363.5C 861.027,365.392 860.36,367.392 860,369.5C 858.707,380.794 858.207,392.127 858.5,403.5C 854.5,403.5 850.5,403.5 846.5,403.5C 846.827,390.462 846.327,377.462 845,364.5C 844.574,361.239 842.741,359.572 839.5,359.5C 834.328,360.79 831.161,364.123 830,369.5C 828.617,380.779 828.117,392.112 828.5,403.5C 824.167,403.5 819.833,403.5 815.5,403.5C 815.667,389.163 815.5,374.829 815,360.5C 814.627,358.302 814.127,356.135 813.5,354C 817.366,350.775 821.7,348.608 826.5,347.5 Z"/></g>
<g><path style="opacity:0.984" fill="#6ebd43" d="M 339.5,392.5 C 357.951,391.065 375.951,393.231 393.5,399C 411.965,405.485 429.799,413.318 447,422.5C 447.667,424.167 447.667,425.833 447,427.5C 378.707,498.037 296.207,523.537 199.5,504C 150.741,491.546 108.908,467.38 74,431.5C 71.7288,419.401 76.8954,412.568 89.5,411C 97.7427,410.04 105.743,411.04 113.5,414C 137.343,425.503 161.676,435.836 186.5,445C 215.334,453.216 243.667,451.883 271.5,441C 256.967,438.016 242.301,435.682 227.5,434C 213.139,430.413 207.639,421.58 211,407.5C 215.8,402.684 221.633,399.851 228.5,399C 247.213,395.669 265.879,396.002 284.5,400C 295.911,400.736 307.244,400.07 318.5,398C 325.514,395.705 332.514,393.872 339.5,392.5 Z"/></g>
</svg>
