<svg xmlns="http://www.w3.org/2000/svg" width="256" height="256"><path fill="#1976D2" fill-opacity=".016" fill-rule="evenodd" d="M0 128.004v128.004l128.25-.254 128.25-.254.254-127.75L257.008 0H0zm.485.496c0 70.4.119 99.053.265 63.672s.146-92.98 0-128S.485 58.1.485 128.5"/><path fill="#1976D2" fill-opacity=".095" fill-rule="evenodd" d="M111.152.731c-2.954.362-3.256.667-2.564 2.59.431 1.198.813 4.706.848 7.794.055 4.8-.43 6.337-3.34 10.601-1.976 2.894-6.533 7.252-10.862 10.385-19.257 13.94-27.81 20.732-30.962 24.585l-3.425 4.185 5.327-.497c6.562-.613 11.201 1.886 13.438 7.24 2.851 6.823-1.37 18.846-11.546 32.886-6.95 9.589-10.073 15.652-12.88 25-2.694 8.972-7.815 17.467-14.994 24.872-5.317 5.485-27.426 22.873-30.301 23.831-.988.329-.759 1.676.964 5.681 2.815 6.543 10.269 19.223 14.276 24.281l3.022 3.816 3.198-3.391c7.363-7.808 16.938-7.148 38.155 2.63 13.737 6.33 23.781 10.038 30.244 11.164 3.707.646 4.126-.281 1.288-2.85-6.03-5.456-4.349-15.804 3.191-19.651 6.11-3.117 18.413-4.424 28.723-3.051 12.011 1.599 17.132 1.441 27.048-.832 10.113-2.318 19.997-2.496 29.297-.525 7.269 1.54 27.365 9.168 34.579 13.125 2.407 1.32 4.516 2.4 4.686 2.4 1.005 0 12.035-18.009 15.368-25.09l3.958-8.41-3.884-.688c-5.057-.895-8.239-3.051-11.234-7.611-3.815-5.811-4.761-9.652-6.326-25.701-2.114-21.666-5.077-35.5-7.605-35.5-.461 0-.839.953-.839 2.118 0 1.164-1.747 3.864-3.882 6-4.313 4.313-8.862 5.118-13.918 2.464-6.312-3.313-14.597-14.638-19.259-26.327-3.206-8.037-7.94-15.23-15.06-22.883-6.41-6.89-12.539-18.375-14.789-27.713-1.794-7.446-4.053-24.516-4.074-30.784-.018-5.495-.09-5.639-3.143-6.25-3.316-.663-27.08-.586-32.723.106M89 5.882c-20.148 6.651-37.182 17.145-52.024 32.052C19.754 55.232 9.084 74.49 2.868 99.5c-2.947 11.855-3.647 35.16-1.451 48.292 1.874 11.21 4.548 20.386 6.083 20.88 1.613.518 22.459-15.423 29.052-22.217 6.745-6.949 11.414-14.95 13.981-23.955 2.434-8.539 6.735-16.821 12.961-24.954 6.454-8.432 10.676-17.257 11.284-23.589.4-4.161.154-4.865-2.4-6.875-5.163-4.061-10.708-1.57-18.167 8.162-2.591 3.381-5.927 7.522-7.413 9.202-2.642 2.987-2.69 2.999-2.156.554 4.517-20.69 14.419-33.633 39.283-51.348 15.314-10.911 19.424-15.148 20.654-21.296.616-3.081-.787-7.127-2.979-8.591-1.751-1.169-3.568-.864-12.6 2.117m63-.433c0 4.655 3.09 26.072 4.612 31.964 2.422 9.376 7.637 18.553 15.399 27.099 5.803 6.389 8.345 10.331 13.189 20.451C193.614 102.542 200.532 111 206.496 111c.877 0 2.699-1.105 4.049-2.455 3.823-3.822 3.364-10.054-1.619-21.98-2.241-5.363-3.849-9.976-3.573-10.251.782-.782 9.397 8.604 13.312 14.5 7.516 11.324 10.462 21.815 12.826 45.686 1.862 18.789 2.789 22.396 6.925 26.937 3.812 4.185 7.595 5.197 10.489 2.806 3.933-3.249 6.465-18.089 6.527-38.243.055-18.222-.542-22.695-5.049-37.796-11.758-39.402-44.179-71.944-84.304-84.619C161.579 4.163 156.57 3 154.948 3 152.487 3 152 3.404 152 5.449M83.401 125.905c-5.009 2.275-7.981 6.257-9.402 12.599-2.116 9.441 1.149 18.292 8.021 21.744 7.437 3.737 23.98.84 23.98-4.199 0-2.277-3.307-6.067-5.25-6.017-.687.017-2.124.692-3.191 1.5-3.055 2.311-9.148 1.893-11.002-.755-2.378-3.394-2.101-13.233.443-15.777 2.457-2.457 6.848-2.568 10.842-.276 2.876 1.651 3.096 1.642 5.129-.198 7.646-6.919-8.07-13.843-19.57-8.621m37.607.28c-5.236 2.698-8.561 7.208-9.526 12.919-1.542 9.13 1.841 17.505 8.502 21.044 4.537 2.411 15.139 2.44 19.943.054 4.234-2.102 4.657-3.259 2.271-6.206-1.686-2.082-2.191-2.194-5.182-1.151-6.755 2.354-11.346 1.352-13.579-2.966L121.949 147l8.775-.011c4.827-.006 10.464-.29 12.526-.631l3.75-.62v-5.221c0-9.297-6.131-15.634-15.737-16.267-4.571-.301-6.692.099-10.255 1.935m39.307-.721c-3.739 1.626-6.315 6.052-6.315 10.85 0 4.49 3.619 8.08 10.334 10.251 2.841.919 5.782 2.249 6.534 2.957 3.781 3.554-4.825 4.873-9.222 1.414-2.365-1.86-2.832-1.919-4.727-.592-1.156.81-2.775 2.433-3.597 3.607-1.255 1.791-1.28 2.395-.159 3.747 3.429 4.134 15.499 5.724 22.201 2.923 6.464-2.7 9.223-9.043 6.518-14.98-1.131-2.483-3.464-3.931-12.221-7.587-2.884-1.204-4.671-2.532-4.423-3.287.629-1.916 6.24-2.088 9.701-.298l3.067 1.586 1.639-3.437c.901-1.89 1.375-4.124 1.052-4.965-1.292-3.367-14.429-4.779-20.382-2.189m-34.086 7.205c-1.142.46-4.229 5.409-4.229 6.781 0 .303 3.15.55 7 .55 6.041 0 7-.243 7-1.777 0-4.631-5.001-7.473-9.771-5.554m38.271 63.895c-7.919 2.014-22.136 2.776-31.69 1.698-9.859-1.113-21.894.021-26.083 2.458-2.382 1.386-3.308 2.703-3.537 5.032-.703 7.155 4.579 10.497 19.336 12.235 5.486.647 10.336 1.523 10.779 1.949 1.027.987-5.724 2.807-15.174 4.09-14.77 2.005-27.232-.939-51.131-12.081-11.667-5.44-14.461-6.352-20.577-6.72-6.353-.383-7.343-.186-9.669 1.924-4.9 4.444-4.52 5.869 3.625 13.606 17.553 16.674 41.453 28.617 65.66 32.812 7.175 1.243 13.448 1.527 25.961 1.173 14.248-.403 18.101-.885 28.227-3.529 20.755-5.42 40.445-16.37 56.03-31.16 7.012-6.654 8.02-8.012 6.926-9.33-1.413-1.703-22.532-10.61-31.151-13.139-8.127-2.384-20.381-2.837-27.532-1.018"/><path fill="#1976D2" fill-opacity=".273" fill-rule="evenodd" d="M113.725.907c-2.626.326-4.835.818-4.91 1.093-.074.275.42 2.183 1.099 4.239 1.02 3.092.968 4.65-.306 9-2.208 7.546-6.004 11.522-21.431 22.448-12.03 8.521-26.174 20.527-26.178 22.222-.001.325 2.485.436 5.523.247 5.294-.329 5.692-.177 9.502 3.632C80.381 67.146 81 68.411 81 71.915 81 77.478 75.903 90.221 70.967 97c-9.332 12.815-11.677 17.061-14.816 26.835-3.879 12.076-10.487 22.611-18.948 30.211C30.202 160.335 11.654 174 10.12 174c-.616 0-1.12.235-1.12.522 0 2.053 7.163 15.535 12.568 23.653l6.52 9.794 3.006-3.423c3.873-4.411 8.585-5.926 16.467-5.293 4.972.399 9.344 1.906 21.105 7.276C83.549 213.324 96.349 218 100.068 218c1.955 0 1.952-.054-.149-2.896-3.121-4.221-3.538-10.792-.947-14.922 4.365-6.958 18.613-9.689 38.195-7.322 9.538 1.153 11.473.998 28.833-2.318 13.964-2.668 26.975-.049 50.33 10.133 4.494 1.958 8.96 4.255 9.926 5.104.966.848 1.92 1.357 2.12 1.132 4.364-4.926 16.2-25.676 18.06-31.661.602-1.938.336-2.25-1.918-2.25-3.255 0-7.353-2.08-10.155-5.155-5.291-5.806-7.11-12.772-8.836-33.845-.813-9.921-2.241-18.303-4.232-24.842l-1.626-5.341-2.085 4.318c-3.839 7.952-12.27 10.324-19.557 5.501-5.289-3.499-12.532-13.964-17.265-24.943-4.62-10.715-6.052-12.898-14.523-22.133-7.253-7.908-13.304-19.361-15.699-29.717-1.623-7.012-4.769-31.833-4.309-33.991.169-.795-1.4-1.531-4.231-1.984-5.247-.839-21.381-.817-28.275.039M89.162 6.495c-19.978 6.482-35.041 15.537-50.276 30.224C15.919 58.86 2.701 87.894.403 121.256c-.997 14.461 3.737 45.093 7.172 46.411 1.951.749 23.151-15.444 29.709-22.692 6.31-6.972 11.038-15.296 12.769-22.475 1.845-7.654 6.234-16.231 12.537-24.5 6.259-8.21 11.009-17.64 11.997-23.816.807-5.05-1.877-8.184-7.01-8.184-4.359 0-7.802 2.871-15.716 13.101C48.5 83.445 45.356 87 44.875 87c-2.451 0 .916-10.992 6.816-22.254 5.118-9.767 14.564-19.079 31.768-31.317C98.88 22.461 104 16.959 104 11.357c0-3.916-1.274-6.864-3.303-7.643-.747-.287-5.938.965-11.535 2.781m63.718-3.041c-.908.908 2.034 24.709 4.037 32.662 2.633 10.45 6.993 18.635 13.898 26.088 7.898 8.524 11.353 13.834 15.97 24.544 8.374 19.423 18.368 27.958 24.142 20.617 3.082-3.917 2.535-8.577-2.391-20.365-2.442-5.845-3.939-10.661-3.375-10.862 2.7-.966 15.044 14.555 19.39 24.381 3.945 8.92 5.292 15.396 7.417 35.669 2.107 20.089 3.482 24.661 8.639 28.717 2.698 2.123 5.984 2.669 7.998 1.33 3.18-2.114 6.704-22.477 6.704-38.735 0-14.525-1.784-25.735-6.359-39.964-10.02-31.162-34.097-59.031-63.417-73.406C172.937 7.955 154.43 1.903 152.88 3.454M88 123.983c-11.489 2.123-17.709 14.086-14.017 26.959 2.502 8.723 12.557 13.567 22.972 11.069 2.867-.688 6.299-2.209 7.628-3.381 2.136-1.884 2.271-2.408 1.166-4.532-2.098-4.033-4.174-4.742-8.229-2.809-8.664 4.132-13.615-.09-12.228-10.427.982-7.326 6.634-10.171 11.836-5.96 2.096 1.697 2.639 1.753 5.04.511 9.363-4.842-1.666-13.74-14.168-11.43m37.917-.013c-9.264 1.709-14.917 9.016-14.917 19.281 0 8.838 2.798 13.997 9.5 17.513 4.298 2.256 14.099 2.171 19.282-.166 4.7-2.119 5.225-3.897 2.127-7.195-1.951-2.076-2.316-2.131-5.468-.814-1.857.776-4.537 1.411-5.954 1.411-2.547 0-7.487-3.929-7.487-5.955 0-.663 3.99-1.045 10.918-1.045 6.005 0 11.63-.273 12.5-.607 3.07-1.178 1.096-12.957-2.914-17.388-3.577-3.953-11.365-6.183-17.587-5.035m38.768.094c-8.19 1.379-13.064 8.7-10.26 15.411 1.658 3.969 4.17 5.753 11.373 8.077 3.836 1.238 5.214 2.157 4.992 3.329-.494 2.608-5.621 2.626-8.384.03-2.021-1.898-2.762-2.07-4.843-1.122-1.352.616-3.246 2.324-4.21 3.795-1.722 2.628-1.705 2.716.949 4.999 2.648 2.278 8.424 4.4 12.005 4.411 4.419.014 11.036-2.491 13.749-5.204 2.394-2.394 2.944-3.792 2.944-7.482 0-5.692-3.009-8.76-11.558-11.789-3.575-1.266-5.942-2.685-5.942-3.562 0-2.132 4.835-2.352 8.624-.393 3.161 1.635 3.31 1.619 5.066-.551 2.34-2.889 2.373-7.577.06-8.489-3.428-1.352-10.81-2.092-14.565-1.46m-39.05 10.009c-1.449 1.139-2.635 2.961-2.635 4.047 0 1.788.592 1.947 6.25 1.678 6.004-.286 6.239-.396 5.981-2.798-.532-4.939-5.22-6.37-9.596-2.927M162 197.682c-3.303 1.136-7.824 1.487-17 1.319-27.852-.509-32.412-.346-36.248 1.293-7.079 3.026-7.328 9.554-.522 13.705 3.448 2.104 4.095 2.25 18.117 4.08 7.559.987 8.645 1.358 7.456 2.547-1.927 1.926-15.51 4.378-24.141 4.357-10.367-.025-19.347-2.244-32.535-8.038C52.996 206.343 49.5 205.037 45.2 205.018c-7.013-.03-11.2 2.947-11.2 7.961 0 3.967 20.936 20.256 35.697 27.774 17.528 8.926 33.328 13.049 53.303 13.909 26.851 1.155 54.129-6.566 76.482-21.65C207.875 227.349 223 213.52 223 211.51c0-1.606-22.432-11.171-31.91-13.606-9.053-2.326-22.672-2.43-29.09-.222"/><path fill="#1976D2" fill-opacity=".261" fill-rule="evenodd" d="M118.812 1.022c-4.779.287-8.978.81-9.331 1.164-.354.353-.157 1.552.438 2.663 2.664 4.977-.214 14.689-6.226 21.008-1.756 1.846-9.043 7.533-16.193 12.638-13.958 9.964-21.947 16.603-23.521 19.545-.884 1.65-.643 1.78 2.388 1.288 4.28-.695 9.955 1.911 12.768 5.862 4.673 6.562-.206 22.268-11.572 37.255-6.313 8.323-9.041 13.5-10.63 20.171-2.14 8.987-7.834 19.075-15.246 27.012-6.527 6.989-24.296 21.264-29.437 23.649-1.238.574-2.25 1.66-2.25 2.412 0 2.866 9.415 19.735 15.655 28.051l2.432 3.24 3.393-3.394c4.252-4.251 11.164-5.981 18.408-4.607 2.73.518 11.86 4.048 20.288 7.845 15.171 6.835 22.044 9.391 28.824 10.722l3.5.687-2.394-2.584c-3.118-3.366-3.989-11.041-1.745-15.381 3.302-6.384 19.006-10.205 33.957-8.263 10.687 1.389 21.549 1.167 27.182-.555 8.238-2.519 19.051-2.925 28.248-1.061 8.142 1.65 25.004 7.918 35.204 13.086l5.385 2.73 1.864-2.353c3.053-3.853 11.835-18.875 14.321-24.498l2.314-5.231-3.168-.669c-5.086-1.075-9.498-4.308-12.222-8.957-3.631-6.195-4.275-9.097-5.989-26.997-1.453-15.171-3.141-24.915-5.283-30.5l-.959-2.5-.713 2.739c-.845 3.243-6.475 8.465-10.111 9.378-7.76 1.947-18.516-7.585-25.52-22.617-7.482-16.059-9.388-19.189-16.431-26.991-8.259-9.147-12.545-16.696-15.356-27.044C149.039 32.437 146 11.816 146 5.468c0-2.749-.447-3.524-2.25-3.906-3.888-.822-15.905-1.083-24.938-.54M84.684 124.449c-7.89 2.814-11.637 9.104-11.646 19.551-.01 12.51 7.227 19.487 19.482 18.781 6.519-.375 13.779-3.448 14.288-6.047.169-.865-.976-3.01-2.545-4.766l-2.852-3.192-3.941 2.112c-4.691 2.514-6.305 2.616-9.208.583-4.722-3.307-3.714-15.588 1.439-17.548 2.023-.768 3.499-.537 6.697 1.048 4.007 1.988 4.16 1.992 6.602.182 3.318-2.46 3.64-5.479.861-8.068-4.254-3.963-12.339-5.075-19.177-2.636m39.258-.501c-4.379 1.329-6.769 2.958-9.403 6.412-4.847 6.355-5.071 19.276-.446 25.771 5.29 7.428 19.744 9.137 28.54 3.374 2.266-1.485 2.311-1.713.884-4.471-2.1-4.063-2.888-4.327-7.861-2.639-2.411.819-5.458 1.23-6.77.914-2.252-.542-5.815-3.921-5.864-5.559-.012-.412 5.603-.75 12.478-.75H148v-5.032c0-2.768-.62-6.48-1.377-8.25-3.504-8.189-13.583-12.53-22.681-9.77m36.374.932c-11.25 5.278-9.086 18.002 3.832 22.525 6.521 2.284 7.863 3.345 5.844 4.621-2.511 1.588-4.965 1.092-7.59-1.533-2.914-2.914-4.606-2.416-8.824 2.596-3.126 3.716-2.421 5.162 3.922 8.048 7.787 3.542 20.23 1.297 23.854-4.303 4.668-7.213 2.877-12.563-5.626-16.812-3.326-1.662-6.624-3.022-7.329-3.022-1.883 0-2.857-2.099-1.393-3.004 1.333-.823 5.317.036 8.795 1.898 1.739.93 2.337.747 3.64-1.113.857-1.224 1.559-3.712 1.559-5.528 0-3.921-2.371-5.19-11-5.889-4.089-.332-6.573.057-9.684 1.516m-35.721 10.288c-2.844 4.06-2.13 4.689 4.655 4.102 3.438-.297 6.34-.607 6.45-.689s-.35-1.258-1.023-2.614c-1.748-3.526-7.835-4.008-10.082-.799"/></svg>